<?xml version="1.0" encoding="UTF-8"?>
<svg width="282px" height="822px" viewBox="0 0 282 822" version="1.1" xmlns="http://www.w3.org/2000/svg" xmlns:xlink="http://www.w3.org/1999/xlink">
    <!-- Generator: Sketch 48.1 (47250) - http://www.bohemiancoding.com/sketch -->
    <title>right</title>
    <desc>Created with Sketch.</desc>
    <defs></defs>
    <g id="wallpaper" stroke="none" stroke-width="1" fill="none" fill-rule="evenodd" transform="translate(-1296.000000, -137.000000)">
        <g id="Group" transform="translate(1019.000000, 138.000000)" stroke="#000000">
            <g id="right" transform="translate(278.000000, 0.000000)">
                <g id="Cube" transform="translate(0.000000, 560.000000)">
                    <g id="Group">
                        <polygon id="Path-2" fill="#FF6200" points="140.28418 0.399414062 280 60.1990401 140 120.399414 0 60.1990401"></polygon>
                        <polygon id="Path-3" fill="#FFA100" transform="translate(210.000000, 160.000000) scale(-1, 1) translate(-210.000000, -160.000000) " points="140.045395 60 140 200.003448 280 260 280 119.996918"></polygon>
                        <polygon id="Path-3" fill="#FF6200" points="0.00453186035 59.9998932 0.00453186035 200.003448 140.000122 260.00383 140.000122 119.999374"></polygon>
                    </g>
                </g>
                <g id="Cube" transform="translate(0.000000, 420.000000)">
                    <g id="Group">
                        <polygon id="Path-2" fill="#FF6200" points="140.28418 0.399414062 280 60.1990401 140 120.399414 0 60.1990401"></polygon>
                        <polygon id="Path-3" fill="#FFA100" transform="translate(210.000000, 160.000000) scale(-1, 1) translate(-210.000000, -160.000000) " points="140.045395 60 140 200.003448 280 260 280 119.996918"></polygon>
                        <polygon id="Path-3" fill="#FF6200" points="0.00453186035 59.9998932 0.00453186035 200.003448 140.000122 260.00383 140.000122 119.999374"></polygon>
                    </g>
                </g>
                <g id="Cube" transform="translate(0.000000, 280.000000)">
                    <g id="Group">
                        <polygon id="Path-2" fill="#FF6200" points="140.28418 0.399414062 280 60.1990401 140 120.399414 0 60.1990401"></polygon>
                        <polygon id="Path-3" fill="#FFA100" transform="translate(210.000000, 160.000000) scale(-1, 1) translate(-210.000000, -160.000000) " points="140.045395 60 140 200.003448 280 260 280 119.996918"></polygon>
                        <polygon id="Path-3" fill="#FF6200" points="0.00453186035 59.9998932 0.00453186035 200.003448 140.000122 260.00383 140.000122 119.999374"></polygon>
                    </g>
                </g>
                <g id="Cube" transform="translate(0.000000, 140.000000)">
                    <g id="Group">
                        <polygon id="Path-2" fill="#FF6200" points="140.28418 0.399414062 280 60.1990401 140 120.399414 0 60.1990401"></polygon>
                        <polygon id="Path-3" fill="#FFA100" transform="translate(210.000000, 160.000000) scale(-1, 1) translate(-210.000000, -160.000000) " points="140.045395 60 140 200.003448 280 260 280 119.996918"></polygon>
                        <polygon id="Path-3" fill="#FF6200" points="0.00453186035 59.9998932 0.00453186035 200.003448 140.000122 260.00383 140.000122 119.999374"></polygon>
                    </g>
                </g>
                <g id="Cube">
                    <g id="Group">
                        <polygon id="Path-2" fill="#FF6200" points="140.28418 0.399414062 280 60.1990401 140 120.399414 0 60.1990401"></polygon>
                        <polygon id="Path-3" fill="#FFA100" transform="translate(210.000000, 160.000000) scale(-1, 1) translate(-210.000000, -160.000000) " points="140.045395 60 140 200.003448 280 260 280 119.996918"></polygon>
                        <polygon id="Path-3" fill="#FF6200" points="0.00453186035 59.9998932 0.00453186035 200.003448 140.000122 260.00383 140.000122 119.999374"></polygon>
                    </g>
                </g>
            </g>
        </g>
    </g>
</svg>